<?xml version="1.0" encoding="UTF-8" standalone="no"?>
<!DOCTYPE svg PUBLIC "-//W3C//DTD SVG 1.1//EN" "http://www.w3.org/Graphics/SVG/1.1/DTD/svg11.dtd">
<svg width="100%" height="100%" viewBox="0 0 732 723" version="1.1" xmlns="http://www.w3.org/2000/svg" xmlns:xlink="http://www.w3.org/1999/xlink" xml:space="preserve" xmlns:serif="http://www.serif.com/" style="fill-rule:evenodd;clip-rule:evenodd;stroke-linejoin:round;stroke-miterlimit:1.41421;">
    <g transform="matrix(1.28512,0,0,1.28512,-211.949,-119.132)">
        <g transform="matrix(7.30142,0,0,7.30142,-1194.01,-765.93)">
            <path d="M199.165,160.516C198.277,160.516 197.477,160.33 196.765,159.958C196.053,159.586 195.495,159.066 195.091,158.398C194.687,157.73 194.485,156.972 194.485,156.124C194.485,155.276 194.687,154.518 195.091,153.85C195.495,153.182 196.053,152.662 196.765,152.29C197.477,151.918 198.277,151.732 199.165,151.732C199.981,151.732 200.709,151.876 201.349,152.164C201.989,152.452 202.517,152.868 202.933,153.412L201.145,155.008C200.625,154.352 200.013,154.024 199.309,154.024C198.717,154.024 198.241,154.214 197.881,154.594C197.521,154.974 197.341,155.484 197.341,156.124C197.341,156.764 197.521,157.274 197.881,157.654C198.241,158.034 198.717,158.224 199.309,158.224C200.013,158.224 200.625,157.896 201.145,157.24L202.933,158.836C202.517,159.38 201.989,159.796 201.349,160.084C200.709,160.372 199.981,160.516 199.165,160.516Z" style="fill-rule:nonzero;"/>
        </g>
        <g transform="matrix(7.30142,0,0,7.30142,-1195.96,-765.93)">
            <path d="M207.973,160.516C207.069,160.516 206.257,160.328 205.537,159.952C204.817,159.576 204.253,159.054 203.845,158.386C203.437,157.718 203.233,156.964 203.233,156.124C203.233,155.284 203.437,154.53 203.845,153.862C204.253,153.194 204.817,152.672 205.537,152.296C206.257,151.92 207.069,151.732 207.973,151.732C208.877,151.732 209.689,151.92 210.409,152.296C211.129,152.672 211.693,153.194 212.101,153.862C212.509,154.53 212.713,155.284 212.713,156.124C212.713,156.964 212.509,157.718 212.101,158.386C211.693,159.054 211.129,159.576 210.409,159.952C209.689,160.328 208.877,160.516 207.973,160.516ZM207.973,158.224C208.325,158.224 208.643,158.138 208.927,157.966C209.211,157.794 209.437,157.55 209.605,157.234C209.773,156.918 209.857,156.548 209.857,156.124C209.857,155.7 209.773,155.33 209.605,155.014C209.437,154.698 209.211,154.454 208.927,154.282C208.643,154.11 208.325,154.024 207.973,154.024C207.621,154.024 207.303,154.11 207.019,154.282C206.735,154.454 206.509,154.698 206.341,155.014C206.173,155.33 206.089,155.7 206.089,156.124C206.089,156.548 206.173,156.918 206.341,157.234C206.509,157.55 206.735,157.794 207.019,157.966C207.303,158.138 207.621,158.224 207.973,158.224Z" style="fill-rule:nonzero;"/>
        </g>
        <g transform="matrix(7.30142,0,0,7.30142,-1198.87,-765.93)">
            <rect x="213.745" y="151.924" width="2.832" height="8.4" style="fill-rule:nonzero;"/>
        </g>
        <g transform="matrix(7.30142,0,0,7.30142,-1201.79,-765.93)">
            <path d="M226.225,151.924L226.225,160.324L223.897,160.324L220.705,156.508L220.705,160.324L217.945,160.324L217.945,151.924L220.273,151.924L223.465,155.74L223.465,151.924L226.225,151.924Z" style="fill-rule:nonzero;"/>
        </g>
        <g transform="matrix(7.30142,0,0,7.30142,-1203.73,-765.93)">
            <path d="M243.445,160.516C242.541,160.516 241.729,160.328 241.009,159.952C240.289,159.576 239.725,159.054 239.317,158.386C238.909,157.718 238.705,156.964 238.705,156.124C238.705,155.284 238.909,154.53 239.317,153.862C239.725,153.194 240.289,152.672 241.009,152.296C241.729,151.92 242.541,151.732 243.445,151.732C244.349,151.732 245.161,151.92 245.881,152.296C246.601,152.672 247.165,153.194 247.573,153.862C247.981,154.53 248.185,155.284 248.185,156.124C248.185,156.964 247.981,157.718 247.573,158.386C247.165,159.054 246.601,159.576 245.881,159.952C245.161,160.328 244.349,160.516 243.445,160.516ZM243.445,158.224C243.797,158.224 244.115,158.138 244.399,157.966C244.683,157.794 244.909,157.55 245.077,157.234C245.245,156.918 245.329,156.548 245.329,156.124C245.329,155.7 245.245,155.33 245.077,155.014C244.909,154.698 244.683,154.454 244.399,154.282C244.115,154.11 243.797,154.024 243.445,154.024C243.093,154.024 242.775,154.11 242.491,154.282C242.207,154.454 241.981,154.698 241.813,155.014C241.645,155.33 241.561,155.7 241.561,156.124C241.561,156.548 241.645,156.918 241.813,157.234C241.981,157.55 242.207,157.794 242.491,157.966C242.775,158.138 243.093,158.224 243.445,158.224Z" style="fill:rgb(255,122,0);fill-rule:nonzero;"/>
        </g>
        <g transform="matrix(7.30142,0,0,7.30142,-1206.64,-765.93)">
            <path d="M257.497,151.924L257.497,160.324L255.169,160.324L251.977,156.508L251.977,160.324L249.217,160.324L249.217,151.924L251.545,151.924L254.737,155.74L254.737,151.924L257.497,151.924Z" style="fill:rgb(255,122,0);fill-rule:nonzero;"/>
        </g>
        <g transform="matrix(0.971377,0,0,0.971377,104.672,208.85)">
            <path d="M389.05,152.543L389.05,201.584L366,201.584L366,182.329L366.08,182.345C367.896,182.345 369.37,180.871 369.37,179.055C369.37,178.264 369.09,177.537 368.623,176.969L383.033,149.716C383.172,149.734 383.315,149.743 383.46,149.743C383.974,149.743 384.461,149.625 384.895,149.414L389.05,152.543Z" style="fill:rgb(255,122,0);"/>
        </g>
        <g transform="matrix(0.971377,0,0,0.971377,104.672,208.85)">
            <path d="M366,175.512L366,138.445L389.05,138.445L389.05,148.788L386.701,147.019C386.733,146.835 386.75,146.646 386.75,146.453C386.75,144.637 385.276,143.163 383.46,143.163C381.644,143.163 380.169,144.637 380.169,146.453C380.169,147.009 380.307,147.532 380.551,147.991L366,175.512Z" style="fill:rgb(255,122,0);"/>
        </g>
        <g transform="matrix(0.971377,0,0,0.971377,155.649,208.85)">
            <path d="M389.05,141.911L389.05,201.584L366,201.584L366,168.392L388.222,141.777L389.05,141.911Z" style="fill:rgb(255,122,0);"/>
        </g>
        <g transform="matrix(0.971377,0,0,0.971377,155.649,208.85)">
            <path d="M386.011,138.445L385.969,138.654C385.969,138.991 386.02,139.315 386.114,139.621L366,163.711L366,138.445L386.011,138.445Z" style="fill:rgb(255,122,0);"/>
        </g>
        <g transform="matrix(0.971377,0,0,0.747803,130.045,253.919)">
            <path d="M366,140.868L385.819,159.897C385.792,160.118 385.778,160.345 385.778,160.576C385.778,162.876 387.18,164.754 389.05,164.845L389.05,201.584L366,201.584L366,140.868Z" style="fill:rgb(255,122,0);"/>
        </g>
        <g transform="matrix(0.971377,0,0,0.747803,130.045,253.919)">
            <path d="M368.524,138.445L389.05,138.445L389.05,156.308L387.594,156.755L368.524,138.445Z" style="fill:rgb(255,122,0);"/>
        </g>
    </g>
</svg>
